<svg width="48" height="48" viewBox="0 0 48 48" fill="none" xmlns="http://www.w3.org/2000/svg">
<mask id="mask0_4260_44575" style="mask-type:alpha" maskUnits="userSpaceOnUse" x="11" y="12" width="25" height="25">
<path opacity="0.6" fill-rule="evenodd" clip-rule="evenodd" d="M14.5678 16.3093C13.7198 16.067 12.807 16.3035 12.1834 16.9272L11.4766 17.634L20.0629 24.503L25.2146 19.3512L14.5678 16.3093ZM14.039 26.9044C13.2428 26.7452 12.4196 26.9944 11.8455 27.5686L11.4766 27.9374L14.4818 30.084L17.0577 27.5081L14.039 26.9044Z" fill="black"/>
<path fill-rule="evenodd" clip-rule="evenodd" d="M31.022 13.5434C31.6725 12.893 32.6346 12.6658 33.5073 12.9567L33.7953 13.0527C34.3391 13.234 34.7659 13.6608 34.9472 14.2047L35.0432 14.4927C35.3341 15.3654 35.107 16.3275 34.4565 16.9779L28.6489 22.7856L31.6908 33.4324C31.9331 34.2804 31.6966 35.1932 31.0729 35.8168L30.3661 36.5236L23.4971 27.9374L20.4919 30.9426L21.0956 33.9612C21.2548 34.7574 21.0056 35.5805 20.4314 36.1547L20.0626 36.5236L17.916 33.5185L17.916 33.5185L16.4563 31.5437L14.4814 30.084L31.022 13.5434Z" fill="black"/>
</mask>
<g mask="url(#mask0_4260_44575)">
<path d="M9.42871 9.42856H38.5716V38.5714H9.42871V9.42856Z" fill="#4972CF"/>
</g>
</svg>
