<svg width="36" height="36" viewBox="0 0 36 36" fill="none" xmlns="http://www.w3.org/2000/svg">
<mask id="mask0_695_693" style="mask-type:alpha" maskUnits="userSpaceOnUse" x="3" y="3" width="30" height="30">
<path d="M3 10.5V16.5H33V10.5H3Z" fill="black"/>
<path opacity="0.7" fill-rule="evenodd" clip-rule="evenodd" d="M10.6364 3H9V6C9 8.48528 11.0147 10.5 13.5 10.5H18H22.5C24.9853 10.5 27 8.48528 27 6V3H22.5C20.0147 3 18 5.01472 18 7.5C18 5.01472 15.9853 3 13.5 3H10.6364Z" fill="black"/>
<path opacity="0.8" fill-rule="evenodd" clip-rule="evenodd" d="M15 16.5H4.5V33H15V16.5ZM21 16.5V28.5C21 30.9853 18.9853 33 16.5 33H25.5C28.8137 33 31.5 30.3137 31.5 27V16.5H21Z" fill="black"/>
<path opacity="0.3" d="M21 16.5H15V33H16.5C18.9853 33 21 30.9853 21 28.5V16.5Z" fill="black"/>
</mask>
<g mask="url(#mask0_695_693)">
<path d="M0 0H36V36H0V0Z" fill="#41414D"/>
</g>
</svg>
