<svg width="36" height="36" viewBox="0 0 36 36" fill="none" xmlns="http://www.w3.org/2000/svg">
<mask id="mask0_143_140852" style="mask-type:alpha" maskUnits="userSpaceOnUse" x="1" y="1" width="34" height="34">
<path fill-rule="evenodd" clip-rule="evenodd" d="M18 34.5C27.1127 34.5 34.5 27.1127 34.5 18C34.5 8.8873 27.1127 1.5 18 1.5C8.8873 1.5 1.5 8.8873 1.5 18C1.5 27.1127 8.8873 34.5 18 34.5ZM12.6 10.5C11.1089 10.5 9.90004 11.7088 9.90004 13.2C9.90004 14.6912 11.1089 15.9 12.6 15.9C14.0912 15.9 15.3 14.6912 15.3 13.2C15.3 11.7088 14.0912 10.5 12.6 10.5ZM20.8501 22.8C20.8501 21.3088 22.059 20.1 23.5501 20.1C25.0413 20.1 26.2501 21.3088 26.2501 22.8C26.2501 24.2912 25.0413 25.5 23.5501 25.5C22.059 25.5 20.8501 24.2912 20.8501 22.8ZM13.2727 19.9673C11.7497 21.4903 11.7497 23.9597 13.2727 25.4827L22.7126 16.0428C24.2357 14.5198 24.2357 12.0505 22.7126 10.5274L13.2727 19.9673Z" fill="url(#paint0_linear_143_140852)"/>
</mask>
<g mask="url(#mask0_143_140852)">
<rect width="36" height="36" fill="#5C636B"/>
</g>
<defs>
<linearGradient id="paint0_linear_143_140852" x1="7.5" y1="7.5" x2="28.5" y2="28.5" gradientUnits="userSpaceOnUse">
<stop stop-opacity="0.95"/>
<stop offset="1" stop-opacity="0.65"/>
</linearGradient>
</defs>
</svg>
